<!DOCTYPE svg PUBLIC "-//W3C//DTD SVG 1.1//EN" "http://www.w3.org/Graphics/SVG/1.1/DTD/svg11.dtd">
<!-- Uploaded to: SVG Repo, www.svgrepo.com, Transformed by: SVG Repo Mixer Tools -->
<svg fill="#525c69" version="1.1" baseProfile="tiny" id="Layer_1" xmlns:x="&amp;ns_extend;" xmlns:i="&amp;ns_ai;" xmlns:graph="&amp;ns_graphs;" xmlns="http://www.w3.org/2000/svg" xmlns:xlink="http://www.w3.org/1999/xlink" xmlns:a="http://ns.adobe.com/AdobeSVGViewerExtensions/3.0/" width="800px" height="800px" viewBox="0 0 42 42" xml:space="preserve">
<g id="SVGRepo_bgCarrier" stroke-width="0"/>
<g id="SVGRepo_tracerCarrier" stroke-linecap="round" stroke-linejoin="round"/>
<g id="SVGRepo_iconCarrier"> <path d="M39.5,22.5v-3c0-1.48-0.43-2-2-2h-13v-13c0-1.48-0.49-2-2-2h-3c-1.55,0-2,0.52-2,2v13h-14c-1.48,0-2,0.49-2,2v3 c0,1.55,0.52,2,2,2h14v14c0,1.51,0.48,2,2,2h3c1.48,0,2-0.43,2-2v-14h13C39.01,24.5,39.5,24.02,39.5,22.5z"/> </g>
</svg>